<?xml version="1.0" encoding="utf-8"?>
<!-- Generator: Adobe Illustrator 15.0.0, SVG Export Plug-In . SVG Version: 6.00 Build 0)  -->
<!DOCTYPE svg PUBLIC "-//W3C//DTD SVG 1.1//EN" "http://www.w3.org/Graphics/SVG/1.1/DTD/svg11.dtd">
<svg version="1.1" id="Layer_1" xmlns="http://www.w3.org/2000/svg" xmlns:xlink="http://www.w3.org/1999/xlink" x="0px" y="0px"
	 width="142px" height="50px" viewBox="0 0 142 50" enable-background="new 0 0 142 50" xml:space="preserve">
<g>
	<g>
		<path fill="#FFFFFF" d="M4.525,3.188c0.175,0,0.339,0.043,0.483,0.121l0.255,0.193l12.938,9.783v0.003l0.498,0.378
			c0.14,0.104,0.281,0.227,0.424,0.354c1.36-0.358,2.78-0.568,4.254-0.568c9.103,0,16.488,7.294,16.663,16.354l3.934,2.975
			c0.188,0.186,0.303,0.44,0.303,0.724c0,0.462-0.305,0.852-0.72,0.981l-4.665,1.74c-2.436,6.194-8.455,10.586-15.515,10.586
			c-2.796,0-5.425-0.696-7.739-1.912l-4.914,1.834c-0.117,0.044-0.242,0.07-0.375,0.07c-0.566,0-1.027-0.462-1.027-1.028
			c0-0.13,0.025-0.255,0.07-0.37l0.119-0.227l1.896-3.445c-2.91-3.002-4.71-7.09-4.71-11.602c0-3.541,1.112-6.818,2.993-9.52
			L3.598,4.649l-0.07-0.191c-0.02-0.079-0.03-0.158-0.03-0.241C3.498,3.649,3.958,3.188,4.525,3.188 M4.525,1.389
			c-1.559,0-2.827,1.269-2.827,2.828c0,0.224,0.028,0.45,0.083,0.673l0.024,0.096l0.034,0.093l0.07,0.191L7.68,20.393
			c-1.824,2.93-2.783,6.277-2.783,9.739c0,4.369,1.523,8.529,4.315,11.855l-1.279,2.323l-0.136,0.257l-0.047,0.09l-0.037,0.095
			c-0.128,0.328-0.193,0.673-0.193,1.023c0,1.56,1.268,2.828,2.827,2.828c0.341,0,0.68-0.062,1.007-0.185l4.18-1.56
			c2.467,1.163,5.101,1.752,7.842,1.752c7.368,0,13.904-4.279,16.874-10.972l3.9-1.455c1.154-0.388,1.925-1.457,1.925-2.681
			c0-0.758-0.297-1.469-0.836-2.003l-0.085-0.084l-0.096-0.072L41.8,28.881c-0.651-9.579-8.735-17.229-18.424-17.229
			c-1.251,0-2.529,0.138-3.809,0.412l-0.282-0.214L6.349,2.067L6.096,1.875l-0.11-0.083L5.864,1.726
			C5.456,1.505,4.993,1.389,4.525,1.389L4.525,1.389z"/>
	</g>
	<g>
		<path fill="#66E3FF" d="M6.697,30.132c0-9.212,7.466-16.68,16.68-16.68c9.213,0,16.68,7.468,16.68,16.68
			c0,9.211-7.467,16.68-16.68,16.68C14.163,46.812,6.697,39.343,6.697,30.132"/>
		<path fill="#4B2A8D" d="M43.973,32.78l-6.068-4.59c-0.887-0.625-2.39-0.834-3.391-0.461l-1.381,0.514V28.24l-6.178,2.3
			l4.043-0.167l0.004,0.001c0.006-0.001,0.016-0.001,0.016-0.001l0.656-0.031c1.308,0.075,2.41,0.907,2.882,2.063l3.948,2.256
			l-4.643-1.025l-0.644,0.438l-3.499,2.383l-0.64,0.433c-0.169,0.112-0.371,0.179-0.589,0.179c-0.51,0-0.933-0.355-1.041-0.832
			l-0.652-5.482v-0.156l-0.018,0.008l-0.021-0.188l-2.535-6.638l-2.138-5.604c-0.576-1.507-2.099-3.537-3.387-4.508l-0.498-0.378
			v-0.003L5.263,3.503L5.008,3.31C4.864,3.231,4.7,3.188,4.525,3.188c-0.567,0-1.027,0.461-1.027,1.028
			c0,0.083,0.011,0.162,0.03,0.241l0.07,0.191l11.555,30.279L9.51,45.179l-0.119,0.227c-0.045,0.115-0.07,0.24-0.07,0.37
			c0,0.566,0.461,1.028,1.027,1.028c0.133,0,0.258-0.026,0.375-0.07l32.833-12.248c0.415-0.13,0.72-0.52,0.72-0.981
			C44.276,33.221,44.161,32.966,43.973,32.78"/>
		<path fill="#FFFFFF" d="M26.758,30.417l0.021,0.188l0.018-0.008v0.156l0.651,5.482c0.109,0.477,0.534,0.831,1.042,0.831
			c0.218,0,0.42-0.065,0.59-0.178l0.639-0.433l3.499-2.381l0.646-0.438l4.64,1.024l-3.948-2.256
			c-0.471-1.156-1.573-1.988-2.881-2.062l-0.65,0.027c0,0-0.014,0.003-0.023,0.004l-0.004-0.001l-4.041,0.167"/>
	</g>
	<g>
		<g>
			<path fill="#FFFFFF" d="M58.452,29.791c-2.122-0.687-2.891-2.016-2.891-4.159c0-3.283,1.496-3.846,4.927-3.846
				c1.373,0,2.974,0.082,4.513,0.478l-0.166,1.851c-1.186-0.041-2.85-0.082-4.263-0.082c-1.747,0-2.391,0.104-2.391,1.643
				c0,1.268,0.477,1.559,1.601,1.912l2.765,0.854c2.269,0.727,2.954,2.078,2.954,4.178c0,3.266-1.417,4.014-5.095,4.014
				c-0.874,0-2.579-0.042-4.659-0.458l0.167-1.911c2.724,0.061,3.555,0.082,4.554,0.082c1.871,0,2.391-0.271,2.391-1.747
				c0-1.31-0.477-1.56-1.518-1.892L58.452,29.791z"/>
			<path fill="#FFFFFF" d="M69.845,32.349c0.208,1.85,0.977,2.224,2.723,2.224c0.979,0,2.432-0.103,3.66-0.249l0.229,1.623
				c-1.082,0.52-2.91,0.686-4.199,0.686c-3.701,0-5.095-1.498-5.095-5.364c0-4.034,1.476-5.365,4.929-5.365
				c3.305,0,4.637,1.228,4.637,3.535c0,1.83-0.832,2.911-2.727,2.911H69.845z M73.295,30.581c0.812,0,0.918-0.645,0.918-1.186
				c0-1.081-0.459-1.496-2.018-1.496c-1.748,0-2.33,0.541-2.392,2.682H73.295z"/>
			<path fill="#FFFFFF" d="M81.092,27.69c1.457-1.103,2.932-1.788,4.408-1.788c1.811,0,2.809,0.999,2.809,2.829v7.65h-2.537v-6.881
				c0-1.145-0.271-1.457-1.082-1.457c-1.02,0-1.955,0.457-3.348,1.249v7.089h-2.537V26.193h2.123L81.092,27.69z"/>
			<path fill="#FFFFFF" d="M100.16,36.382h-1.996l-0.209-1.393c-0.914,0.853-2.289,1.643-3.951,1.643
				c-2.578,0-3.574-1.954-3.574-5.406c0-4.054,1.33-5.323,3.908-5.323c1.205,0,2.391,0.271,3.389,0.894
				c-0.084-0.665-0.102-1.33-0.102-2.037v-2.932h2.535V36.382z M97.625,28.376c-0.916-0.228-1.623-0.415-2.539-0.415
				c-1.498,0-2.059,0.5-2.059,3.243c0,2.683,0.561,3.287,1.912,3.287c1.02,0,1.561-0.312,2.686-1.062V28.376z"/>
			<path fill="#FFFFFF" d="M110.494,28.979c2.162,0.188,2.889,1.539,2.889,3.826c0,2.953-1.352,3.742-4.699,3.742
				c-2.619,0-3.99-0.021-5.717-0.166V22.036c1.537-0.146,2.785-0.168,5.072-0.168c3.619,0,4.908,0.791,4.908,3.744
				c0,2.058-0.707,3.119-2.453,3.285V28.979z M108.123,28.003c1.746,0,2.328-0.416,2.328-2.059c0-1.602-0.623-1.975-2.537-1.975
				h-2.389v4.033H108.123z M108.248,34.448c1.932,0,2.537-0.395,2.537-2.119c0-1.915-0.646-2.413-2.621-2.434h-2.639v4.531
				L108.248,34.448z"/>
			<path fill="#FFFFFF" d="M117.541,21.765c0.5,0,0.729,0.271,0.729,0.728v1.146c0,0.477-0.229,0.727-0.729,0.727h-1.162
				c-0.48,0-0.729-0.25-0.729-0.727v-1.146c0-0.456,0.248-0.728,0.729-0.728H117.541z M115.711,36.382V26.193h2.518v10.188H115.711z
				"/>
			<path fill="#FFFFFF" d="M127.564,28.272h-0.729c-0.977,0-1.914,0.334-3.369,0.916v7.193h-2.535V26.193h1.975l0.229,1.497
				c1.395-1.143,2.869-1.788,4.201-1.788h0.498L127.564,28.272z"/>
			<path fill="#FFFFFF" d="M138.502,36.382h-1.996l-0.209-1.393c-0.914,0.853-2.287,1.643-3.951,1.643
				c-2.578,0-3.576-1.954-3.576-5.406c0-4.054,1.332-5.323,3.908-5.323c1.207,0,2.393,0.271,3.391,0.894
				c-0.084-0.665-0.105-1.33-0.105-2.037v-2.932h2.539V36.382z M135.963,28.376c-0.914-0.228-1.621-0.415-2.535-0.415
				c-1.498,0-2.059,0.5-2.059,3.243c0,2.683,0.561,3.287,1.914,3.287c1.018,0,1.559-0.312,2.68-1.062V28.376z"/>
		</g>
	</g>
</g>
</svg>
