<?xml version="1.0" encoding="utf-8"?>
<!-- Generator: Adobe Illustrator 15.0.0, SVG Export Plug-In . SVG Version: 6.00 Build 0)  -->
<!DOCTYPE svg PUBLIC "-//W3C//DTD SVG 1.1//EN" "http://www.w3.org/Graphics/SVG/1.1/DTD/svg11.dtd">
<svg version="1.1" id="Layer_1" xmlns="http://www.w3.org/2000/svg" xmlns:xlink="http://www.w3.org/1999/xlink" x="0px" y="0px"
	 width="190px" height="68px" viewBox="0 0 190 68" enable-background="new 0 0 190 68" xml:space="preserve">
<g>
	<g>
		<path fill="#FFFFFF" d="M5.491,4.267c0.238,0,0.459,0.058,0.656,0.164l0.346,0.264l17.564,13.28v0.004l0.676,0.514
			c0.188,0.14,0.381,0.309,0.574,0.48c1.847-0.487,3.775-0.772,5.776-0.772c12.357,0,22.384,9.902,22.621,22.201l5.34,4.039
			c0.254,0.252,0.411,0.599,0.411,0.981c0,0.627-0.414,1.154-0.977,1.332l-6.334,2.362C48.84,57.525,40.667,63.49,31.084,63.49
			c-3.797,0-7.365-0.946-10.507-2.598l-6.672,2.488c-0.159,0.061-0.328,0.098-0.508,0.098c-0.771,0-1.395-0.627-1.395-1.397
			c0-0.176,0.034-0.345,0.095-0.502l0.163-0.308l2.575-4.678C10.884,52.52,8.44,46.969,8.44,40.843
			c0-4.808,1.511-9.255,4.064-12.922L4.233,6.249L4.138,5.99C4.111,5.883,4.095,5.775,4.095,5.663
			C4.095,4.893,4.721,4.267,5.491,4.267 M5.491,1.823c-2.117,0-3.84,1.723-3.84,3.84c0,0.303,0.037,0.6,0.113,0.91l0.033,0.133
			l0.047,0.128l0.095,0.259l7.835,20.531c-2.477,3.978-3.779,8.521-3.779,13.22c0,5.932,2.069,11.581,5.86,16.096l-1.736,3.153
			l-0.183,0.345L9.87,60.562l-0.052,0.133c-0.173,0.445-0.261,0.912-0.261,1.386c0,2.118,1.722,3.842,3.839,3.842
			c0.466,0,0.93-0.087,1.379-0.258l5.662-2.112c3.349,1.581,6.926,2.381,10.646,2.381c10.002,0,18.876-5.811,22.907-14.896
			l5.298-1.976c1.565-0.528,2.611-1.981,2.611-3.64c0-1.026-0.403-1.991-1.134-2.717l-0.116-0.115l-0.131-0.1l-4.423-3.345
			c-0.409-6.143-3.025-11.856-7.443-16.201c-4.715-4.636-10.954-7.19-17.569-7.19c-1.7,0-3.434,0.188-5.17,0.56l-0.383-0.291
			L7.967,2.745l-0.34-0.258l-0.15-0.114l-0.166-0.09C6.757,1.982,6.128,1.823,5.491,1.823L5.491,1.823z"/>
	</g>
	<g>
		<path fill="#7AD0ED" d="M8.439,40.844c0-12.505,10.136-22.644,22.645-22.644c12.507,0,22.645,10.139,22.645,22.644
			c0,12.506-10.138,22.646-22.645,22.646C18.575,63.49,8.439,53.35,8.439,40.844"/>
		<path fill="#705AA5" d="M59.045,44.439l-8.238-6.229c-1.204-0.849-3.243-1.134-4.603-0.626l-1.875,0.693v-0.002l-8.387,3.123
			l5.489-0.228l0.005,0.002c0.008-0.002,0.021-0.002,0.021-0.002l0.892-0.043c1.774,0.104,3.271,1.231,3.911,2.802l5.36,3.062
			L45.317,45.6l-0.875,0.594l-4.749,3.234l-0.868,0.588c-0.229,0.153-0.504,0.243-0.8,0.243c-0.691,0-1.266-0.481-1.413-1.131
			l-0.886-7.44v-0.213l-0.023,0.012l-0.03-0.256l-3.44-9.012l-2.902-7.608c-0.782-2.046-2.85-4.802-4.598-6.12l-0.676-0.514v-0.004
			L6.493,4.694L6.147,4.431C5.951,4.324,5.729,4.267,5.491,4.267c-0.771,0-1.396,0.626-1.396,1.396c0,0.112,0.016,0.22,0.042,0.327
			l0.095,0.259l15.685,41.106l-7.659,13.916l-0.163,0.308C12.034,61.736,12,61.905,12,62.081c0,0.771,0.625,1.397,1.395,1.397
			c0.181,0,0.35-0.037,0.508-0.098l44.575-16.627c0.562-0.178,0.977-0.705,0.977-1.332C59.456,45.039,59.299,44.691,59.045,44.439"
			/>
		<path fill="#FFFFFF" d="M35.674,41.232l0.03,0.254l0.023-0.012v0.213l0.884,7.441c0.149,0.648,0.727,1.129,1.415,1.129
			c0.296,0,0.57-0.088,0.801-0.24l0.867-0.588l4.749-3.231l0.878-0.595l6.299,1.39l-5.36-3.062c-0.639-1.57-2.136-2.699-3.91-2.802
			l-0.884,0.038c0,0-0.02,0.004-0.032,0.006l-0.005-0.002L35.943,41.4"/>
	</g>
	<g>
		<g>
			<path fill="#FFFFFF" d="M78.702,40.382c-2.882-0.932-3.926-2.735-3.926-5.646c0-4.458,2.031-5.222,6.688-5.222
				c1.863,0,4.038,0.111,6.126,0.648l-0.226,2.513c-1.608-0.057-3.867-0.112-5.786-0.112c-2.372,0-3.245,0.142-3.245,2.23
				c0,1.723,0.646,2.116,2.172,2.596l3.754,1.159c3.079,0.986,4.011,2.819,4.011,5.669c0,4.436-1.924,5.452-6.917,5.452
				c-1.187,0-3.501-0.058-6.325-0.623l0.228-2.594c3.697,0.083,4.825,0.11,6.182,0.11c2.54,0,3.244-0.369,3.244-2.371
				c0-1.778-0.646-2.118-2.058-2.568L78.702,40.382z"/>
			<path fill="#FFFFFF" d="M94.169,43.854c0.282,2.511,1.325,3.021,3.698,3.021c1.324,0,3.3-0.14,4.967-0.338l0.312,2.202
				c-1.47,0.703-3.955,0.932-5.701,0.932c-5.024,0-6.918-2.035-6.918-7.281c0-5.479,2.004-7.285,6.692-7.285
				c4.485,0,6.295,1.666,6.295,4.799c0,2.486-1.13,3.953-3.699,3.953h-5.646V43.854z M98.854,41.454c1.103,0,1.246-0.875,1.246-1.61
				c0-1.466-0.623-2.029-2.74-2.029c-2.372,0-3.161,0.734-3.248,3.641L98.854,41.454L98.854,41.454z"/>
			<path fill="#FFFFFF" d="M109.438,37.53c1.977-1.498,3.98-2.429,5.985-2.429c2.456,0,3.812,1.358,3.812,3.84v10.388h-3.442v-9.343
				c0-1.551-0.368-1.978-1.469-1.978c-1.384,0-2.653,0.621-4.546,1.695v9.624h-3.444v-13.83h2.881L109.438,37.53z"/>
			<path fill="#FFFFFF" d="M135.324,49.329h-2.71l-0.284-1.892c-1.239,1.16-3.105,2.231-5.362,2.231
				c-3.501,0-4.854-2.651-4.854-7.341c0-5.503,1.809-7.227,5.307-7.227c1.637,0,3.247,0.366,4.602,1.213
				c-0.113-0.903-0.139-1.806-0.139-2.766v-3.981h3.442L135.324,49.329L135.324,49.329z M131.882,38.461
				c-1.245-0.309-2.202-0.562-3.446-0.562c-2.035,0-2.793,0.679-2.793,4.402c0,3.641,0.758,4.463,2.597,4.463
				c1.383,0,2.116-0.426,3.644-1.439L131.882,38.461L131.882,38.461z"/>
			<path fill="#FFFFFF" d="M149.354,39.279c2.938,0.256,3.922,2.089,3.922,5.195c0,4.01-1.834,5.078-6.379,5.078
				c-3.555,0-5.418-0.025-7.762-0.225V29.854c2.088-0.199,3.781-0.229,6.887-0.229c4.914,0,6.664,1.074,6.664,5.083
				c0,2.793-0.961,4.233-3.332,4.459V39.279z M146.133,37.954c2.37,0,3.162-0.565,3.162-2.794c0-2.175-0.847-2.682-3.443-2.682
				h-3.242v5.476H146.133z M146.305,46.705c2.623,0,3.444-0.536,3.444-2.879c0-2.6-0.877-3.275-3.558-3.303h-3.584v6.151
				L146.305,46.705z"/>
			<path fill="#FFFFFF" d="M158.921,29.485c0.679,0,0.988,0.369,0.988,0.988v1.554c0,0.648-0.312,0.987-0.988,0.987h-1.58
				c-0.649,0-0.987-0.339-0.987-0.987v-1.554c0-0.619,0.338-0.988,0.987-0.988H158.921z M156.438,49.329v-13.83h3.416v13.83H156.438
				z"/>
			<path fill="#FFFFFF" d="M172.527,38.32h-0.988c-1.327,0-2.598,0.453-4.573,1.242v9.767h-3.442v-13.83h2.681l0.313,2.031
				c1.892-1.552,3.894-2.429,5.698-2.429h0.681L172.527,38.32z"/>
			<path fill="#FFFFFF" d="M187.376,49.329h-2.712l-0.279-1.892c-1.246,1.16-3.105,2.231-5.365,2.231
				c-3.5,0-4.854-2.651-4.854-7.341c0-5.503,1.808-7.227,5.305-7.227c1.638,0,3.248,0.366,4.604,1.213
				c-0.112-0.903-0.144-1.806-0.144-2.766v-3.981h3.446V49.329L187.376,49.329z M183.93,38.461c-1.24-0.309-2.201-0.562-3.441-0.562
				c-2.033,0-2.797,0.679-2.797,4.402c0,3.641,0.764,4.463,2.6,4.463c1.384,0,2.119-0.426,3.639-1.439V38.461L183.93,38.461z"/>
		</g>
	</g>
</g>
</svg>
